<svg width="100" height="100" viewBox="0 0 100 100" fill="none" xmlns="http://www.w3.org/2000/svg">
<path d="M50 12C29.0132 12 12 29.0132 12 50C12 70.9868 29.0132 88 50 88C70.9868 88 88 70.9868 88 50C87.9762 29.0228 70.9772 12.0237 50 12ZM50 84.96C30.692 84.96 15.04 69.308 15.04 50C15.04 30.692 30.692 15.04 50 15.04C69.308 15.04 84.96 30.692 84.96 50C84.9385 69.2991 69.2991 84.9385 50 84.96Z" fill="white"/>
<path d="M72.3866 27.6135C71.9027 27.1311 71.1568 27.0309 70.5623 27.3686L43.4257 42.8558C43.4093 42.8669 43.4019 42.8847 43.3849 42.8944C43.2112 43.0436 43.0486 43.2061 42.8987 43.3805C42.8891 43.3968 42.8713 43.405 42.8609 43.4213L27.3684 70.5579C27.0293 71.1532 27.1302 71.9013 27.6141 72.3859C28.0988 72.8698 28.8469 72.9708 29.4421 72.6316L56.5743 57.1444C56.5906 57.1332 56.598 57.1154 56.6151 57.1058C56.7888 56.9566 56.9513 56.7941 57.1012 56.6196C57.1109 56.6033 57.1287 56.5952 57.1391 56.5788L72.6315 29.4467C72.9736 28.8507 72.8734 28.0989 72.3866 27.6135V27.6135ZM32.7693 67.2307L44.513 46.6639L53.3443 55.4871L32.7693 67.2307ZM55.487 53.3444L46.6713 44.5279L67.238 32.7843L55.487 53.3444Z" fill="white"/>
<path d="M55.472 56.384L44.072 44.528L70.976 29.48L55.472 56.384Z" fill="white"/>
<path d="M86.024 48.176H80.552C79.7965 48.176 79.184 48.9927 79.184 50C79.184 51.0073 79.7965 51.824 80.552 51.824H86.024C86.7794 51.824 87.392 51.0073 87.392 50C87.392 48.9927 86.7794 48.176 86.024 48.176Z" fill="white"/>
<path d="M19.448 48.176H13.976C13.2205 48.176 12.608 48.9927 12.608 50C12.608 51.0073 13.2205 51.824 13.976 51.824H19.448C20.2035 51.824 20.816 51.0073 20.816 50C20.816 48.9927 20.2035 48.176 19.448 48.176Z" fill="white"/>
<path d="M51.824 86.024L51.824 80.552C51.824 79.7965 51.0073 79.184 50 79.184C48.9927 79.184 48.176 79.7965 48.176 80.552L48.176 86.024C48.176 86.7794 48.9927 87.392 50 87.392C51.0073 87.392 51.824 86.7794 51.824 86.024Z" fill="white"/>
<path d="M50 20.8159C51.0073 20.8159 51.824 20.2034 51.824 19.4479V13.9759C51.824 13.2204 51.0073 12.6079 50 12.6079C48.9927 12.6079 48.176 13.2204 48.176 13.9759V19.4479C48.176 20.2034 48.9927 20.8159 50 20.8159Z" fill="white"/>
<circle cx="50" cy="50" r="47" stroke="#428DCB" stroke-width="6"/>
</svg>
